# xmcd CD database file
#
# Track frame offsets:
#	187
#	15297
#	29387
#	42810
#	56212
#	72740
#	87667
#	103505
#	119630
#	135350
#	149697
#	150622
#	164440
#	177517
#	191940
#	204570
#	215380
#	229855
#	237042
#	250362
#
# Disc length: 4369 seconds
#
# Revision: 2
# Processed by: cddbd v1.5.2PL0 Copyright (c) Steve Scherf et al.
# Submitted via: CDex 1.70beta2
#
DISCID=2c110f14
DTITLE=Charlie Parker - Bird: The Complete Charlie Parker On Verve - Disc 5
DYEAR=1900
DGENRE=Jazz
TTITLE0=Dancing in the Dark
TTITLE1=Out of Nowhere
TTITLE2=Laura (take 1 previously unreleased)
TTITLE3=Laura (take 2 - master)
TTITLE4=East of the Sun
TTITLE5=They Can't Take That Away from Me
TTITLE6=Easy to Love
TTITLE7=I'm in the Mood for Love
TTITLE8=I'm in the Mood for Love (take 3 - alternate)
TTITLE9=I'll Remember April (take 1 previously unreleased)
TTITLE10=I'll Remember April (take 2 previously unreleased)
TTITLE11=I'll Remember April (take 3 master)
TTITLE12=What Is This Thing Called Love
TTITLE13=April in Paris
TTITLE14=Repetiton
TTITLE15=Easy to Love
TTITLE16=Rocker
TTITLE17=Celebrity
TTITLE18=Ballade
TTITLE19=Afro-cuban Jazz Suite
EXTD=
EXTT0=
EXTT1=
EXTT2=
EXTT3=
EXTT4=
EXTT5=
EXTT6=
EXTT7=
EXTT8=
EXTT9=
EXTT10=
EXTT11=
EXTT12=
EXTT13=
EXTT14=
EXTT15=
EXTT16=
EXTT17=
EXTT18=
EXTT19=
PLAYORDER=
